<mxfile host="app.diagrams.net" modified="2024-04-14T13:30:08.416Z" agent="Mozilla/5.0 (Windows NT 10.0; Win64; x64) AppleWebKit/537.36 (KHTML, like Gecko) Chrome/123.0.0.0 Safari/537.36 Edg/123.0.0.0" etag="O_WqNB5QGctqSU7YXQAE" version="22.1.18" type="github" pages="2">
  <diagram name="Page-1" id="_6w2JesXSfQLQlaRpP3z">
    <mxGraphModel dx="1209" dy="777" grid="1" gridSize="10" guides="1" tooltips="1" connect="1" arrows="1" fold="1" page="1" pageScale="1" pageWidth="850" pageHeight="1100" math="0" shadow="0">
      <root>
        <mxCell id="0" />
        <mxCell id="1" parent="0" />
        <mxCell id="6rnoz_Hvp4YIUY2W8GRo-1" value="" style="rounded=0;whiteSpace=wrap;html=1;fillColor=#000033;strokeColor=#2D7600;fontColor=#ffffff;" vertex="1" parent="1">
          <mxGeometry x="100" y="20" width="600" height="360" as="geometry" />
        </mxCell>
        <mxCell id="6rnoz_Hvp4YIUY2W8GRo-2" value="" style="rounded=1;whiteSpace=wrap;html=1;fillColor=#EA6B66;strokeColor=#b85450;" vertex="1" parent="1">
          <mxGeometry x="520" y="50" width="80" height="20" as="geometry" />
        </mxCell>
        <mxCell id="6rnoz_Hvp4YIUY2W8GRo-3" value="" style="rounded=1;whiteSpace=wrap;html=1;fillColor=#EA6B66;" vertex="1" parent="1">
          <mxGeometry x="610" y="50" width="80" height="20" as="geometry" />
        </mxCell>
        <mxCell id="6rnoz_Hvp4YIUY2W8GRo-5" value="" style="rounded=0;whiteSpace=wrap;html=1;strokeColor=#330033;" vertex="1" parent="1">
          <mxGeometry x="240" y="140" width="290" height="145" as="geometry" />
        </mxCell>
        <mxCell id="6rnoz_Hvp4YIUY2W8GRo-6" value="&lt;font style=&quot;font-size: 17px;&quot;&gt;Do te japim nje informacion te pergjithshem per faqen tone&lt;/font&gt;" style="text;strokeColor=none;align=center;fillColor=none;html=1;verticalAlign=middle;whiteSpace=wrap;rounded=0;" vertex="1" parent="1">
          <mxGeometry x="330" y="190" width="120" height="30" as="geometry" />
        </mxCell>
        <mxCell id="6rnoz_Hvp4YIUY2W8GRo-7" value="login" style="text;strokeColor=none;align=center;fillColor=none;html=1;verticalAlign=middle;whiteSpace=wrap;rounded=0;" vertex="1" parent="1">
          <mxGeometry x="530" y="45" width="60" height="30" as="geometry" />
        </mxCell>
        <mxCell id="6rnoz_Hvp4YIUY2W8GRo-8" value="register" style="text;strokeColor=none;align=center;fillColor=none;html=1;verticalAlign=middle;whiteSpace=wrap;rounded=0;" vertex="1" parent="1">
          <mxGeometry x="620" y="45" width="60" height="30" as="geometry" />
        </mxCell>
        <mxCell id="6rnoz_Hvp4YIUY2W8GRo-9" value="&lt;font color=&quot;#ffffff&quot;&gt;faqe 1&lt;/font&gt;" style="text;strokeColor=none;align=center;fillColor=none;html=1;verticalAlign=middle;whiteSpace=wrap;rounded=0;" vertex="1" parent="1">
          <mxGeometry x="130" y="60" width="60" height="30" as="geometry" />
        </mxCell>
        <mxCell id="6rnoz_Hvp4YIUY2W8GRo-10" style="edgeStyle=orthogonalEdgeStyle;rounded=0;orthogonalLoop=1;jettySize=auto;html=1;exitX=0.5;exitY=1;exitDx=0;exitDy=0;" edge="1" parent="1" source="6rnoz_Hvp4YIUY2W8GRo-1" target="6rnoz_Hvp4YIUY2W8GRo-1">
          <mxGeometry relative="1" as="geometry" />
        </mxCell>
        <mxCell id="6rnoz_Hvp4YIUY2W8GRo-11" value="" style="rounded=0;whiteSpace=wrap;html=1;fillColor=#000033;" vertex="1" parent="1">
          <mxGeometry x="90" y="450" width="610" height="340" as="geometry" />
        </mxCell>
        <mxCell id="6rnoz_Hvp4YIUY2W8GRo-12" value="" style="endArrow=none;html=1;rounded=0;entryX=0.5;entryY=0;entryDx=0;entryDy=0;exitX=0.5;exitY=1;exitDx=0;exitDy=0;strokeWidth=10;strokeColor=#FFFFFF;" edge="1" parent="1" source="6rnoz_Hvp4YIUY2W8GRo-11" target="6rnoz_Hvp4YIUY2W8GRo-11">
          <mxGeometry width="50" height="50" relative="1" as="geometry">
            <mxPoint x="300" y="500" as="sourcePoint" />
            <mxPoint x="380" y="450" as="targetPoint" />
            <Array as="points" />
          </mxGeometry>
        </mxCell>
        <mxCell id="6rnoz_Hvp4YIUY2W8GRo-13" value="" style="rounded=0;whiteSpace=wrap;html=1;fillColor=#EA6B66;" vertex="1" parent="1">
          <mxGeometry x="180" y="470" width="110" height="40" as="geometry" />
        </mxCell>
        <mxCell id="6rnoz_Hvp4YIUY2W8GRo-14" value="" style="rounded=0;whiteSpace=wrap;html=1;fillColor=#EA6B66;" vertex="1" parent="1">
          <mxGeometry x="480" y="470" width="110" height="40" as="geometry" />
        </mxCell>
        <mxCell id="6rnoz_Hvp4YIUY2W8GRo-15" value="login" style="text;strokeColor=none;align=center;fillColor=none;html=1;verticalAlign=middle;whiteSpace=wrap;rounded=0;" vertex="1" parent="1">
          <mxGeometry x="205" y="475" width="60" height="30" as="geometry" />
        </mxCell>
        <mxCell id="6rnoz_Hvp4YIUY2W8GRo-16" value="register" style="text;strokeColor=none;align=center;fillColor=none;html=1;verticalAlign=middle;whiteSpace=wrap;rounded=0;" vertex="1" parent="1">
          <mxGeometry x="505" y="475" width="60" height="30" as="geometry" />
        </mxCell>
        <mxCell id="6rnoz_Hvp4YIUY2W8GRo-17" value="" style="rounded=0;whiteSpace=wrap;html=1;" vertex="1" parent="1">
          <mxGeometry x="120" y="540" width="220" height="30" as="geometry" />
        </mxCell>
        <mxCell id="6rnoz_Hvp4YIUY2W8GRo-18" value="Password" style="rounded=0;whiteSpace=wrap;html=1;" vertex="1" parent="1">
          <mxGeometry x="120" y="580" width="220" height="30" as="geometry" />
        </mxCell>
        <mxCell id="6rnoz_Hvp4YIUY2W8GRo-19" value="" style="rounded=1;whiteSpace=wrap;html=1;fillColor=#3399FF;" vertex="1" parent="1">
          <mxGeometry x="170" y="630" width="110" height="40" as="geometry" />
        </mxCell>
        <mxCell id="6rnoz_Hvp4YIUY2W8GRo-20" value="&lt;font style=&quot;font-size: 14px;&quot;&gt;login&lt;/font&gt;" style="text;strokeColor=none;align=center;fillColor=none;html=1;verticalAlign=middle;whiteSpace=wrap;rounded=0;strokeWidth=3;" vertex="1" parent="1">
          <mxGeometry x="190" y="635" width="60" height="30" as="geometry" />
        </mxCell>
        <mxCell id="6rnoz_Hvp4YIUY2W8GRo-21" value="Email" style="text;strokeColor=none;align=center;fillColor=none;html=1;verticalAlign=middle;whiteSpace=wrap;rounded=0;" vertex="1" parent="1">
          <mxGeometry x="140" y="540" width="180" height="30" as="geometry" />
        </mxCell>
        <mxCell id="6rnoz_Hvp4YIUY2W8GRo-22" value="name" style="rounded=0;whiteSpace=wrap;html=1;" vertex="1" parent="1">
          <mxGeometry x="425" y="540" width="215" height="30" as="geometry" />
        </mxCell>
        <mxCell id="6rnoz_Hvp4YIUY2W8GRo-23" value="Surname" style="rounded=0;whiteSpace=wrap;html=1;" vertex="1" parent="1">
          <mxGeometry x="425" y="580" width="215" height="30" as="geometry" />
        </mxCell>
        <mxCell id="6rnoz_Hvp4YIUY2W8GRo-24" value="Email" style="rounded=0;whiteSpace=wrap;html=1;" vertex="1" parent="1">
          <mxGeometry x="425" y="620" width="215" height="30" as="geometry" />
        </mxCell>
        <mxCell id="6rnoz_Hvp4YIUY2W8GRo-25" value="Password" style="rounded=0;whiteSpace=wrap;html=1;" vertex="1" parent="1">
          <mxGeometry x="425" y="660" width="215" height="30" as="geometry" />
        </mxCell>
        <mxCell id="6rnoz_Hvp4YIUY2W8GRo-26" value="" style="rounded=1;whiteSpace=wrap;html=1;fillColor=#3399FF;" vertex="1" parent="1">
          <mxGeometry x="477.5" y="700" width="110" height="40" as="geometry" />
        </mxCell>
        <mxCell id="6rnoz_Hvp4YIUY2W8GRo-27" value="Register" style="text;strokeColor=none;align=center;fillColor=none;html=1;verticalAlign=middle;whiteSpace=wrap;rounded=0;" vertex="1" parent="1">
          <mxGeometry x="502.5" y="705" width="60" height="30" as="geometry" />
        </mxCell>
      </root>
    </mxGraphModel>
  </diagram>
  <diagram id="AaytFKf3_4scp4EGJFer" name="Page-2">
    <mxGraphModel dx="1310" dy="842" grid="1" gridSize="10" guides="1" tooltips="1" connect="1" arrows="1" fold="1" page="1" pageScale="1" pageWidth="850" pageHeight="1100" math="0" shadow="0">
      <root>
        <mxCell id="0" />
        <mxCell id="1" parent="0" />
        <mxCell id="sZGI_NhTVm381KzrBI3S-1" value="" style="rounded=0;whiteSpace=wrap;html=1;fillColor=#000033;" vertex="1" parent="1">
          <mxGeometry x="130" y="50" width="610" height="320" as="geometry" />
        </mxCell>
        <mxCell id="sZGI_NhTVm381KzrBI3S-8" style="edgeStyle=orthogonalEdgeStyle;rounded=0;orthogonalLoop=1;jettySize=auto;html=1;exitX=0.75;exitY=1;exitDx=0;exitDy=0;" edge="1" parent="1" source="sZGI_NhTVm381KzrBI3S-3" target="sZGI_NhTVm381KzrBI3S-1">
          <mxGeometry relative="1" as="geometry" />
        </mxCell>
        <mxCell id="sZGI_NhTVm381KzrBI3S-3" value="&lt;font color=&quot;#ffffff&quot;&gt;FQ 3&lt;/font&gt;" style="text;html=1;strokeColor=none;fillColor=none;align=center;verticalAlign=middle;whiteSpace=wrap;rounded=0;" vertex="1" parent="1">
          <mxGeometry x="430" y="60" width="60" height="30" as="geometry" />
        </mxCell>
        <mxCell id="sZGI_NhTVm381KzrBI3S-4" value="Prenotime" style="rounded=0;whiteSpace=wrap;html=1;" vertex="1" parent="1">
          <mxGeometry x="130" y="50" width="70" height="30" as="geometry" />
        </mxCell>
        <mxCell id="sZGI_NhTVm381KzrBI3S-5" value="Kategori" style="rounded=0;whiteSpace=wrap;html=1;" vertex="1" parent="1">
          <mxGeometry x="200" y="50" width="80" height="30" as="geometry" />
        </mxCell>
        <mxCell id="sZGI_NhTVm381KzrBI3S-6" value="Rreth nesh" style="rounded=0;whiteSpace=wrap;html=1;" vertex="1" parent="1">
          <mxGeometry x="280" y="50" width="90" height="30" as="geometry" />
        </mxCell>
        <mxCell id="sZGI_NhTVm381KzrBI3S-7" value="log out" style="rounded=0;whiteSpace=wrap;html=1;" vertex="1" parent="1">
          <mxGeometry x="660" y="50" width="80" height="30" as="geometry" />
        </mxCell>
        <mxCell id="sZGI_NhTVm381KzrBI3S-9" value="" style="rounded=0;whiteSpace=wrap;html=1;fillColor=#EA6B66;" vertex="1" parent="1">
          <mxGeometry x="150" y="110" width="560" height="230" as="geometry" />
        </mxCell>
        <mxCell id="sZGI_NhTVm381KzrBI3S-11" value="data" style="rounded=0;whiteSpace=wrap;html=1;" vertex="1" parent="1">
          <mxGeometry x="170" y="130" width="150" height="30" as="geometry" />
        </mxCell>
        <mxCell id="sZGI_NhTVm381KzrBI3S-12" value="fusha" style="rounded=0;whiteSpace=wrap;html=1;" vertex="1" parent="1">
          <mxGeometry x="365" y="170" width="120" height="30" as="geometry" />
        </mxCell>
        <mxCell id="sZGI_NhTVm381KzrBI3S-13" value="ora" style="rounded=0;whiteSpace=wrap;html=1;" vertex="1" parent="1">
          <mxGeometry x="520" y="130" width="120" height="30" as="geometry" />
        </mxCell>
        <mxCell id="sZGI_NhTVm381KzrBI3S-14" value="data" style="rounded=0;whiteSpace=wrap;html=1;" vertex="1" parent="1">
          <mxGeometry x="170" y="170" width="150" height="30" as="geometry" />
        </mxCell>
        <mxCell id="sZGI_NhTVm381KzrBI3S-15" value="fusha" style="rounded=0;whiteSpace=wrap;html=1;" vertex="1" parent="1">
          <mxGeometry x="365" y="130" width="120" height="30" as="geometry" />
        </mxCell>
        <mxCell id="sZGI_NhTVm381KzrBI3S-16" value="ora" style="rounded=0;whiteSpace=wrap;html=1;" vertex="1" parent="1">
          <mxGeometry x="520" y="170" width="120" height="30" as="geometry" />
        </mxCell>
        <mxCell id="sZGI_NhTVm381KzrBI3S-17" value="&lt;font color=&quot;#ffffff&quot; style=&quot;font-size: 16px;&quot;&gt;ketu do te na duken te gjitha fushat qe kemi prenotuar ne datem dhe oren e caktuar&lt;/font&gt;" style="text;html=1;strokeColor=none;fillColor=none;align=center;verticalAlign=middle;whiteSpace=wrap;rounded=0;" vertex="1" parent="1">
          <mxGeometry x="320" y="260" width="210" height="30" as="geometry" />
        </mxCell>
        <mxCell id="TMEcN5StZUZDxthUnnO5-1" value="FQ 3" style="rounded=0;whiteSpace=wrap;html=1;fillColor=#000033;" vertex="1" parent="1">
          <mxGeometry x="130" y="400" width="610" height="320" as="geometry" />
        </mxCell>
        <mxCell id="TMEcN5StZUZDxthUnnO5-2" value="Prenotime" style="rounded=0;whiteSpace=wrap;html=1;" vertex="1" parent="1">
          <mxGeometry x="130" y="400" width="70" height="30" as="geometry" />
        </mxCell>
        <mxCell id="TMEcN5StZUZDxthUnnO5-8" value="Kategori" style="rounded=0;whiteSpace=wrap;html=1;" vertex="1" parent="1">
          <mxGeometry x="200" y="400" width="80" height="30" as="geometry" />
        </mxCell>
        <mxCell id="TMEcN5StZUZDxthUnnO5-9" value="Rreth nesh" style="rounded=0;whiteSpace=wrap;html=1;" vertex="1" parent="1">
          <mxGeometry x="280" y="400" width="90" height="30" as="geometry" />
        </mxCell>
        <mxCell id="TMEcN5StZUZDxthUnnO5-10" value="&lt;font color=&quot;#ffffff&quot;&gt;FQ 4&lt;/font&gt;" style="text;html=1;strokeColor=none;fillColor=none;align=center;verticalAlign=middle;whiteSpace=wrap;rounded=0;" vertex="1" parent="1">
          <mxGeometry x="425" y="410" width="60" height="30" as="geometry" />
        </mxCell>
        <mxCell id="TMEcN5StZUZDxthUnnO5-11" value="log out" style="rounded=0;whiteSpace=wrap;html=1;" vertex="1" parent="1">
          <mxGeometry x="660" y="400" width="80" height="30" as="geometry" />
        </mxCell>
        <mxCell id="TMEcN5StZUZDxthUnnO5-12" value="basketball&lt;br&gt;football&lt;br&gt;cycling&lt;br&gt;racing&lt;br&gt;voleyball" style="rounded=0;whiteSpace=wrap;html=1;" vertex="1" parent="1">
          <mxGeometry x="200" y="430" width="80" height="100" as="geometry" />
        </mxCell>
        <mxCell id="TMEcN5StZUZDxthUnnO5-13" value="&lt;span style=&quot;font-size: 24px;&quot;&gt;&amp;nbsp;Ketu do te kemi kalendarin ku pasi te klikohet do te kalojme ne faqen e rezervimit&lt;/span&gt;" style="rounded=0;whiteSpace=wrap;html=1;fillColor=#EA6B66;" vertex="1" parent="1">
          <mxGeometry x="130" y="550" width="610" height="180" as="geometry" />
        </mxCell>
        <mxCell id="TMEcN5StZUZDxthUnnO5-14" value="" style="endArrow=none;html=1;rounded=0;" edge="1" parent="1">
          <mxGeometry width="50" height="50" relative="1" as="geometry">
            <mxPoint x="410" y="450" as="sourcePoint" />
            <mxPoint x="460" y="400" as="targetPoint" />
          </mxGeometry>
        </mxCell>
        <mxCell id="ucjkTTueBpZTP4x4yw0g-1" value="" style="rounded=0;whiteSpace=wrap;html=1;fillColor=#000033;" vertex="1" parent="1">
          <mxGeometry x="130" y="760" width="620" height="370" as="geometry" />
        </mxCell>
        <mxCell id="ucjkTTueBpZTP4x4yw0g-2" value="" style="endArrow=none;html=1;rounded=0;entryX=0.5;entryY=0;entryDx=0;entryDy=0;exitX=0.5;exitY=1;exitDx=0;exitDy=0;strokeWidth=10;strokeColor=#FFFFFF;" edge="1" parent="1" source="ucjkTTueBpZTP4x4yw0g-1" target="ucjkTTueBpZTP4x4yw0g-1">
          <mxGeometry width="50" height="50" relative="1" as="geometry">
            <mxPoint x="430" y="860" as="sourcePoint" />
            <mxPoint x="480" y="810" as="targetPoint" />
          </mxGeometry>
        </mxCell>
        <mxCell id="ucjkTTueBpZTP4x4yw0g-3" value="Rezervimi" style="rounded=0;whiteSpace=wrap;html=1;fillColor=#EA6B66;" vertex="1" parent="1">
          <mxGeometry x="200" y="790" width="160" height="40" as="geometry" />
        </mxCell>
        <mxCell id="ucjkTTueBpZTP4x4yw0g-4" value="Paypal ose cash" style="rounded=0;whiteSpace=wrap;html=1;" vertex="1" parent="1">
          <mxGeometry x="485" y="850" width="210" height="40" as="geometry" />
        </mxCell>
        <mxCell id="ucjkTTueBpZTP4x4yw0g-5" value="cfare ore" style="rounded=0;whiteSpace=wrap;html=1;" vertex="1" parent="1">
          <mxGeometry x="180" y="925" width="210" height="40" as="geometry" />
        </mxCell>
        <mxCell id="ucjkTTueBpZTP4x4yw0g-6" value="zgjidhni fushen" style="rounded=0;whiteSpace=wrap;html=1;" vertex="1" parent="1">
          <mxGeometry x="180" y="980" width="210" height="40" as="geometry" />
        </mxCell>
        <mxCell id="ucjkTTueBpZTP4x4yw0g-7" value="Paguaj" style="rounded=1;whiteSpace=wrap;html=1;fillColor=#3399FF;" vertex="1" parent="1">
          <mxGeometry x="220" y="1030" width="120" height="50" as="geometry" />
        </mxCell>
        <mxCell id="ucjkTTueBpZTP4x4yw0g-8" value="Pagesa" style="rounded=0;whiteSpace=wrap;html=1;fillColor=#EA6B66;" vertex="1" parent="1">
          <mxGeometry x="510" y="790" width="160" height="40" as="geometry" />
        </mxCell>
        <mxCell id="ucjkTTueBpZTP4x4yw0g-9" value="Ketu do te vendosen te dhenat e kartes&amp;nbsp;" style="rounded=0;whiteSpace=wrap;html=1;" vertex="1" parent="1">
          <mxGeometry x="485" y="900" width="210" height="110" as="geometry" />
        </mxCell>
        <mxCell id="ucjkTTueBpZTP4x4yw0g-10" value="sa persona" style="rounded=0;whiteSpace=wrap;html=1;" vertex="1" parent="1">
          <mxGeometry x="180" y="870" width="210" height="40" as="geometry" />
        </mxCell>
        <mxCell id="ucjkTTueBpZTP4x4yw0g-11" value="Paguaj" style="rounded=1;whiteSpace=wrap;html=1;fillColor=#3399FF;direction=south;" vertex="1" parent="1">
          <mxGeometry x="527.5" y="1030" width="125" height="50" as="geometry" />
        </mxCell>
      </root>
    </mxGraphModel>
  </diagram>
</mxfile>
